%TF.GenerationSoftware,KiCad,Pcbnew,9.0.6*%
%TF.CreationDate,2026-04-07T01:39:47+02:00*%
%TF.ProjectId,PCB_Board,5043425f-426f-4617-9264-2e6b69636164,rev?*%
%TF.SameCoordinates,Original*%
%TF.FileFunction,Copper,L1,Top*%
%TF.FilePolarity,Positive*%
%FSLAX46Y46*%
G04 Gerber Fmt 4.6, Leading zero omitted, Abs format (unit mm)*
G04 Created by KiCad (PCBNEW 9.0.6) date 2026-04-07 01:39:47*
%MOMM*%
%LPD*%
G01*
G04 APERTURE LIST*
G04 Aperture macros list*
%AMRoundRect*
0 Rectangle with rounded corners*
0 $1 Rounding radius*
0 $2 $3 $4 $5 $6 $7 $8 $9 X,Y pos of 4 corners*
0 Add a 4 corners polygon primitive as box body*
4,1,4,$2,$3,$4,$5,$6,$7,$8,$9,$2,$3,0*
0 Add four circle primitives for the rounded corners*
1,1,$1+$1,$2,$3*
1,1,$1+$1,$4,$5*
1,1,$1+$1,$6,$7*
1,1,$1+$1,$8,$9*
0 Add four rect primitives between the rounded corners*
20,1,$1+$1,$2,$3,$4,$5,0*
20,1,$1+$1,$4,$5,$6,$7,0*
20,1,$1+$1,$6,$7,$8,$9,0*
20,1,$1+$1,$8,$9,$2,$3,0*%
G04 Aperture macros list end*
%TA.AperFunction,ComponentPad*%
%ADD10R,1.800000X1.800000*%
%TD*%
%TA.AperFunction,ComponentPad*%
%ADD11C,1.800000*%
%TD*%
%TA.AperFunction,ComponentPad*%
%ADD12RoundRect,0.250000X-0.550000X-0.550000X0.550000X-0.550000X0.550000X0.550000X-0.550000X0.550000X0*%
%TD*%
%TA.AperFunction,ComponentPad*%
%ADD13C,1.600000*%
%TD*%
%TA.AperFunction,ComponentPad*%
%ADD14C,2.000000*%
%TD*%
%TA.AperFunction,ComponentPad*%
%ADD15C,1.440000*%
%TD*%
%TA.AperFunction,SMDPad,CuDef*%
%ADD16RoundRect,0.150000X-0.825000X-0.150000X0.825000X-0.150000X0.825000X0.150000X-0.825000X0.150000X0*%
%TD*%
%TA.AperFunction,ViaPad*%
%ADD17C,0.600000*%
%TD*%
%TA.AperFunction,Conductor*%
%ADD18C,0.200000*%
%TD*%
G04 APERTURE END LIST*
D10*
%TO.P,D3,1,K*%
%TO.N,GND*%
X210618749Y-107632500D03*
D11*
%TO.P,D3,2,A*%
%TO.N,TOUT*%
X213158749Y-107632500D03*
%TD*%
D10*
%TO.P,D9,1,K*%
%TO.N,GND*%
X246337499Y-71913750D03*
D11*
%TO.P,D9,2,A*%
%TO.N,TOUT*%
X248877499Y-71913750D03*
%TD*%
D10*
%TO.P,D11,1,K*%
%TO.N,GND*%
X205697499Y-79057500D03*
D11*
%TO.P,D11,2,A*%
%TO.N,TOUT*%
X208237499Y-79057500D03*
%TD*%
D10*
%TO.P,D13,1,K*%
%TO.N,GND*%
X260624999Y-71913750D03*
D11*
%TO.P,D13,2,A*%
%TO.N,TOUT*%
X263164999Y-71913750D03*
%TD*%
D10*
%TO.P,D16,1,K*%
%TO.N,GND*%
X243797499Y-86201250D03*
D11*
%TO.P,D16,2,A*%
%TO.N,TOUT*%
X246337499Y-86201250D03*
%TD*%
D12*
%TO.P,BT1,1,+*%
%TO.N,GND*%
X222235224Y-76338750D03*
D13*
%TO.P,BT1,2,-*%
%TO.N,Net-(BT1--)*%
X225835224Y-76338750D03*
%TD*%
D10*
%TO.P,D7,1,K*%
%TO.N,GND*%
X212999999Y-95726250D03*
D11*
%TO.P,D7,2,A*%
%TO.N,TOUT*%
X215539999Y-95726250D03*
%TD*%
D14*
%TO.P,SW1,1,1*%
%TO.N,Net-(U1-R)*%
X219274999Y-95857500D03*
X225774999Y-95857500D03*
%TO.P,SW1,2,2*%
%TO.N,Net-(BT1--)*%
X219274999Y-100357500D03*
X225774999Y-100357500D03*
%TD*%
D11*
%TO.P,D4,2,A*%
%TO.N,TOUT*%
X217762499Y-71913750D03*
D10*
%TO.P,D4,1,K*%
%TO.N,GND*%
X215222499Y-71913750D03*
%TD*%
D11*
%TO.P,D1,2,A*%
%TO.N,TOUT*%
X232049999Y-50482500D03*
D10*
%TO.P,D1,1,K*%
%TO.N,GND*%
X229509999Y-50482500D03*
%TD*%
%TO.P,D5,1,K*%
%TO.N,GND*%
X234272499Y-62388750D03*
D11*
%TO.P,D5,2,A*%
%TO.N,TOUT*%
X236812499Y-62388750D03*
%TD*%
D12*
%TO.P,C1,1*%
%TO.N,Net-(C1-Pad1)*%
X222524999Y-81438750D03*
D13*
%TO.P,C1,2*%
%TO.N,unconnected-(C1-Pad2)*%
X225024999Y-81438750D03*
%TD*%
D11*
%TO.P,D2,2,A*%
%TO.N,TOUT*%
X255862499Y-79057500D03*
D10*
%TO.P,D2,1,K*%
%TO.N,GND*%
X253322499Y-79057500D03*
%TD*%
%TO.P,D6,1,K*%
%TO.N,GND*%
X246337499Y-95726250D03*
D11*
%TO.P,D6,2,A*%
%TO.N,TOUT*%
X248877499Y-95726250D03*
%TD*%
D10*
%TO.P,D10,1,K*%
%TO.N,GND*%
X248718749Y-107632500D03*
D11*
%TO.P,D10,2,A*%
%TO.N,TOUT*%
X251258749Y-107632500D03*
%TD*%
D10*
%TO.P,D12,1,K*%
%TO.N,GND*%
X215222499Y-86201250D03*
D11*
%TO.P,D12,2,A*%
%TO.N,TOUT*%
X217762499Y-86201250D03*
%TD*%
D10*
%TO.P,D14,1,K*%
%TO.N,GND*%
X229668749Y-95726250D03*
D11*
%TO.P,D14,2,A*%
%TO.N,TOUT*%
X232208749Y-95726250D03*
%TD*%
D10*
%TO.P,D15,1,K*%
%TO.N,GND*%
X198553749Y-71913750D03*
D11*
%TO.P,D15,2,A*%
%TO.N,TOUT*%
X201093749Y-71913750D03*
%TD*%
D13*
%TO.P,R1,1*%
%TO.N,Net-(U1-Q)*%
X228239999Y-74295000D03*
%TO.P,R1,2*%
%TO.N,TOUT*%
X235859999Y-74295000D03*
%TD*%
%TO.P,R2,1*%
%TO.N,Net-(U1-DIS)*%
X228239999Y-78345000D03*
%TO.P,R2,2*%
%TO.N,Net-(C1-Pad1)*%
X235859999Y-78345000D03*
%TD*%
D15*
%TO.P,R3,3*%
%TO.N,N/C*%
X232049999Y-83820000D03*
%TO.P,R3,2*%
%TO.N,Net-(U1-DIS)*%
X234589999Y-86360000D03*
%TO.P,R3,1*%
%TO.N,Net-(U1-R)*%
X232049999Y-88900000D03*
%TD*%
D16*
%TO.P,U1,1,GND*%
%TO.N,GND*%
X239099999Y-77152500D03*
%TO.P,U1,2,TR*%
%TO.N,Net-(U1-THR)*%
X239099999Y-78422500D03*
%TO.P,U1,3,Q*%
%TO.N,Net-(U1-Q)*%
X239099999Y-79692500D03*
%TO.P,U1,4,R*%
%TO.N,Net-(U1-R)*%
X239099999Y-80962500D03*
%TO.P,U1,5,CV*%
%TO.N,unconnected-(U1-CV-Pad5)*%
X244049999Y-80962500D03*
%TO.P,U1,6,THR*%
%TO.N,Net-(U1-THR)*%
X244049999Y-79692500D03*
%TO.P,U1,7,DIS*%
%TO.N,Net-(U1-DIS)*%
X244049999Y-78422500D03*
%TO.P,U1,8,VCC*%
%TO.N,Net-(U1-R)*%
X244049999Y-77152500D03*
%TD*%
D11*
%TO.P,D8,2,A*%
%TO.N,TOUT*%
X227446249Y-62388750D03*
D10*
%TO.P,D8,1,K*%
%TO.N,GND*%
X224906249Y-62388750D03*
%TD*%
D17*
%TO.N,GND*%
X253136359Y-77021140D03*
X212575734Y-81863015D03*
%TO.N,TOUT*%
X236812499Y-69532500D03*
X241574999Y-69532500D03*
%TO.N,Net-(U1-DIS)*%
X246337499Y-81438750D03*
%TO.N,Net-(U1-THR)*%
X241574999Y-79057500D03*
X239193749Y-78892500D03*
%TO.N,Net-(U1-R)*%
X248718749Y-76676250D03*
%TD*%
D18*
%TO.N,GND*%
X253322499Y-77207280D02*
X253136359Y-77021140D01*
X253322499Y-79057500D02*
X253322499Y-77207280D01*
X229509999Y-50482500D02*
X230351528Y-50482500D01*
X230351528Y-50482500D02*
X231552528Y-49281500D01*
X215222499Y-84509780D02*
X212575734Y-81863015D01*
X215222499Y-86201250D02*
X215222499Y-84509780D01*
X229509999Y-50482500D02*
X229509999Y-57785000D01*
X229509999Y-57785000D02*
X224906249Y-62388750D01*
%TO.N,TOUT*%
X235611499Y-63589750D02*
X236812499Y-62388750D01*
X228647249Y-63589750D02*
X235611499Y-63589750D01*
X227446249Y-62388750D02*
X228647249Y-63589750D01*
X223020384Y-77439750D02*
X229668749Y-70791385D01*
X229668749Y-70791385D02*
X229668749Y-69532500D01*
X214021499Y-73114750D02*
X218346499Y-77439750D01*
X214021499Y-70712750D02*
X214021499Y-73114750D01*
X218346499Y-77439750D02*
X223020384Y-77439750D01*
X216561499Y-70712750D02*
X214021499Y-70712750D01*
X217762499Y-71913750D02*
X216561499Y-70712750D01*
%TO.N,GND*%
X218259970Y-73114750D02*
X216423499Y-73114750D01*
X224906249Y-66468471D02*
X218259970Y-73114750D01*
X216423499Y-73114750D02*
X215222499Y-71913750D01*
X224906249Y-62388750D02*
X224906249Y-66468471D01*
%TO.N,TOUT*%
X235859999Y-72866250D02*
X235859999Y-74295000D01*
X236812499Y-71913750D02*
X235859999Y-72866250D01*
X236812499Y-69532500D02*
X236812499Y-71913750D01*
X246496249Y-69532500D02*
X241574999Y-69532500D01*
%TO.N,GND*%
X239660717Y-69999468D02*
X241574999Y-71913750D01*
X239660717Y-63538497D02*
X239660717Y-69999468D01*
X233250999Y-49985029D02*
X233250999Y-57128779D01*
X232547470Y-49281500D02*
X233250999Y-49985029D01*
X231552528Y-49281500D02*
X232547470Y-49281500D01*
X241574999Y-71913750D02*
X246337499Y-71913750D01*
X230848999Y-49985029D02*
X231552528Y-49281500D01*
X230848999Y-58965250D02*
X230848999Y-49985029D01*
X234272499Y-62388750D02*
X230848999Y-58965250D01*
X233250999Y-57128779D02*
X239660717Y-63538497D01*
%TO.N,TOUT*%
X231097499Y-69532500D02*
X229668749Y-69532500D01*
X210618749Y-74115500D02*
X210618749Y-79057500D01*
X214021499Y-70712750D02*
X210618749Y-74115500D01*
X201093749Y-71913750D02*
X208237499Y-79057500D01*
%TO.N,GND*%
X198553749Y-74136250D02*
X198553749Y-71913750D01*
X203474999Y-79057500D02*
X198553749Y-74136250D01*
%TO.N,Net-(U1-DIS)*%
X246337499Y-80363032D02*
X246337499Y-81438750D01*
X244396967Y-78422500D02*
X246337499Y-80363032D01*
X244049999Y-78422500D02*
X244396967Y-78422500D01*
%TO.N,Net-(U1-THR)*%
X241574999Y-79057500D02*
X242175999Y-79057500D01*
X239099999Y-78798750D02*
X239193749Y-78892500D01*
X239099999Y-78422500D02*
X239099999Y-78798750D01*
X242810999Y-79692500D02*
X242175999Y-79057500D01*
X244049999Y-79692500D02*
X242810999Y-79692500D01*
%TO.N,Net-(U1-R)*%
X248718749Y-76676250D02*
X248242499Y-77152500D01*
X248242499Y-77152500D02*
X244049999Y-77152500D01*
%TO.N,TOUT*%
X232049999Y-50482500D02*
X232049999Y-57626250D01*
X232049999Y-57626250D02*
X236812499Y-62388750D01*
%TO.N,GND*%
X222235224Y-76338750D02*
X219647499Y-76338750D01*
X219647499Y-76338750D02*
X215222499Y-71913750D01*
%TO.N,Net-(U1-DIS)*%
X234589999Y-87803913D02*
X234589999Y-86360000D01*
X227075999Y-95317913D02*
X234589999Y-87803913D01*
X227075999Y-96396392D02*
X227075999Y-95317913D01*
X226313891Y-97158500D02*
X227075999Y-96396392D01*
X218736107Y-97158500D02*
X226313891Y-97158500D01*
X217973999Y-96396392D02*
X218736107Y-97158500D01*
X217973999Y-95318608D02*
X217973999Y-96396392D01*
X221423999Y-91868608D02*
X217973999Y-95318608D01*
X221423999Y-80653590D02*
X221423999Y-91868608D01*
X223732589Y-78345000D02*
X221423999Y-80653590D01*
X228239999Y-78345000D02*
X223732589Y-78345000D01*
%TO.N,Net-(U1-Q)*%
X236960999Y-79206000D02*
X237447499Y-79692500D01*
X233367049Y-74295000D02*
X236960999Y-77888950D01*
X237447499Y-79692500D02*
X239099999Y-79692500D01*
X228239999Y-74295000D02*
X233367049Y-74295000D01*
X236960999Y-77888950D02*
X236960999Y-79206000D01*
%TO.N,Net-(C1-Pad1)*%
X223625999Y-80337750D02*
X222524999Y-81438750D01*
X233867249Y-80337750D02*
X223625999Y-80337750D01*
X235859999Y-78345000D02*
X233867249Y-80337750D01*
%TO.N,Net-(U1-R)*%
X232049999Y-87037501D02*
X232049999Y-88900000D01*
X238125000Y-80962500D02*
X232049999Y-87037501D01*
X239099999Y-80962500D02*
X238125000Y-80962500D01*
X232049999Y-89582500D02*
X232049999Y-88900000D01*
X225774999Y-95857500D02*
X232049999Y-89582500D01*
X226232499Y-88900000D02*
X232049999Y-88900000D01*
X219274999Y-95857500D02*
X226232499Y-88900000D01*
X219274999Y-95857500D02*
X225774999Y-95857500D01*
%TO.N,GND*%
X230869749Y-96927250D02*
X229668749Y-95726250D01*
X245136499Y-96927250D02*
X230869749Y-96927250D01*
X246337499Y-95726250D02*
X245136499Y-96927250D01*
X243797499Y-93186250D02*
X243797499Y-86201250D01*
X246337499Y-95726250D02*
X243797499Y-93186250D01*
X240375999Y-77453501D02*
X240375999Y-82779750D01*
X240375999Y-82779750D02*
X243797499Y-86201250D01*
X240074998Y-77152500D02*
X240375999Y-77453501D01*
X239099999Y-77152500D02*
X240074998Y-77152500D01*
X241098749Y-77152500D02*
X246337499Y-71913750D01*
X239099999Y-77152500D02*
X241098749Y-77152500D01*
X250941249Y-79057500D02*
X243797499Y-86201250D01*
X253322499Y-79057500D02*
X250941249Y-79057500D01*
X253322499Y-79057500D02*
X253322499Y-78898750D01*
X253322499Y-78898750D02*
X246337499Y-71913750D01*
%TO.N,TOUT*%
X210618749Y-79057500D02*
X208237499Y-79057500D01*
X216439999Y-84878750D02*
X210618749Y-79057500D01*
X216439999Y-94826250D02*
X216439999Y-84878750D01*
X215539999Y-95726250D02*
X216439999Y-94826250D01*
X217762499Y-93503750D02*
X217762499Y-86201250D01*
X215539999Y-95726250D02*
X217762499Y-93503750D01*
X213158749Y-107632500D02*
X215539999Y-105251250D01*
X215539999Y-105251250D02*
X215539999Y-95726250D01*
%TO.N,GND*%
X230869749Y-94525250D02*
X229668749Y-95726250D01*
X235611499Y-94525250D02*
X230869749Y-94525250D01*
X248718749Y-107632500D02*
X235611499Y-94525250D01*
X246337499Y-105251250D02*
X246337499Y-95726250D01*
X248718749Y-107632500D02*
X246337499Y-105251250D01*
%TO.N,TOUT*%
X247565510Y-103939261D02*
X251258749Y-107632500D01*
X247565510Y-87127342D02*
X247565510Y-103939261D01*
X255635352Y-79057500D02*
X247565510Y-87127342D01*
X255862499Y-79057500D02*
X255635352Y-79057500D01*
X246337499Y-93186250D02*
X248877499Y-95726250D01*
X246337499Y-88355353D02*
X246337499Y-93186250D01*
X255635352Y-79057500D02*
X246337499Y-88355353D01*
X248718749Y-86201250D02*
X246337499Y-86201250D01*
X255862499Y-79057500D02*
X248718749Y-86201250D01*
X250078499Y-70712750D02*
X261963999Y-70712750D01*
X248877499Y-71913750D02*
X250078499Y-70712750D01*
X261963999Y-70712750D02*
X263164999Y-71913750D01*
X255862499Y-78898750D02*
X255862499Y-79057500D01*
X248877499Y-71913750D02*
X255862499Y-78898750D01*
X246496249Y-69532500D02*
X248877499Y-71913750D01*
X231097499Y-69532500D02*
X235859999Y-74295000D01*
X229668749Y-69532500D02*
X236812499Y-62388750D01*
%TO.N,GND*%
X205697499Y-79057500D02*
X203474999Y-79057500D01*
X205703344Y-79057500D02*
X205697499Y-79057500D01*
X212847094Y-86201250D02*
X205703344Y-79057500D01*
X215222499Y-86201250D02*
X212847094Y-86201250D01*
X215222499Y-86697094D02*
X215222499Y-86201250D01*
X210618749Y-99386410D02*
X214135205Y-87784388D01*
X210618749Y-107632500D02*
X210618749Y-99386410D01*
X214135205Y-87784388D02*
X215222499Y-86697094D01*
X212999999Y-105251250D02*
X212999999Y-95726250D01*
X210618749Y-107632500D02*
X212999999Y-105251250D01*
%TD*%
M02*
