%TF.GenerationSoftware,KiCad,Pcbnew,9.0.6*%
%TF.CreationDate,2026-04-07T01:39:47+02:00*%
%TF.ProjectId,PCB_Board,5043425f-426f-4617-9264-2e6b69636164,rev?*%
%TF.SameCoordinates,Original*%
%TF.FileFunction,Legend,Top*%
%TF.FilePolarity,Positive*%
%FSLAX46Y46*%
G04 Gerber Fmt 4.6, Leading zero omitted, Abs format (unit mm)*
G04 Created by KiCad (PCBNEW 9.0.6) date 2026-04-07 01:39:47*
%MOMM*%
%LPD*%
G01*
G04 APERTURE LIST*
%ADD10C,0.150000*%
%ADD11C,0.120000*%
G04 APERTURE END LIST*
D10*
X209880654Y-103324819D02*
X209880654Y-102324819D01*
X209880654Y-102324819D02*
X210118749Y-102324819D01*
X210118749Y-102324819D02*
X210261606Y-102372438D01*
X210261606Y-102372438D02*
X210356844Y-102467676D01*
X210356844Y-102467676D02*
X210404463Y-102562914D01*
X210404463Y-102562914D02*
X210452082Y-102753390D01*
X210452082Y-102753390D02*
X210452082Y-102896247D01*
X210452082Y-102896247D02*
X210404463Y-103086723D01*
X210404463Y-103086723D02*
X210356844Y-103181961D01*
X210356844Y-103181961D02*
X210261606Y-103277200D01*
X210261606Y-103277200D02*
X210118749Y-103324819D01*
X210118749Y-103324819D02*
X209880654Y-103324819D01*
X210785416Y-102324819D02*
X211404463Y-102324819D01*
X211404463Y-102324819D02*
X211071130Y-102705771D01*
X211071130Y-102705771D02*
X211213987Y-102705771D01*
X211213987Y-102705771D02*
X211309225Y-102753390D01*
X211309225Y-102753390D02*
X211356844Y-102801009D01*
X211356844Y-102801009D02*
X211404463Y-102896247D01*
X211404463Y-102896247D02*
X211404463Y-103134342D01*
X211404463Y-103134342D02*
X211356844Y-103229580D01*
X211356844Y-103229580D02*
X211309225Y-103277200D01*
X211309225Y-103277200D02*
X211213987Y-103324819D01*
X211213987Y-103324819D02*
X210928273Y-103324819D01*
X210928273Y-103324819D02*
X210833035Y-103277200D01*
X210833035Y-103277200D02*
X210785416Y-103229580D01*
X246869404Y-68408569D02*
X246869404Y-67408569D01*
X246869404Y-67408569D02*
X247107499Y-67408569D01*
X247107499Y-67408569D02*
X247250356Y-67456188D01*
X247250356Y-67456188D02*
X247345594Y-67551426D01*
X247345594Y-67551426D02*
X247393213Y-67646664D01*
X247393213Y-67646664D02*
X247440832Y-67837140D01*
X247440832Y-67837140D02*
X247440832Y-67979997D01*
X247440832Y-67979997D02*
X247393213Y-68170473D01*
X247393213Y-68170473D02*
X247345594Y-68265711D01*
X247345594Y-68265711D02*
X247250356Y-68360950D01*
X247250356Y-68360950D02*
X247107499Y-68408569D01*
X247107499Y-68408569D02*
X246869404Y-68408569D01*
X247917023Y-68408569D02*
X248107499Y-68408569D01*
X248107499Y-68408569D02*
X248202737Y-68360950D01*
X248202737Y-68360950D02*
X248250356Y-68313330D01*
X248250356Y-68313330D02*
X248345594Y-68170473D01*
X248345594Y-68170473D02*
X248393213Y-67979997D01*
X248393213Y-67979997D02*
X248393213Y-67599045D01*
X248393213Y-67599045D02*
X248345594Y-67503807D01*
X248345594Y-67503807D02*
X248297975Y-67456188D01*
X248297975Y-67456188D02*
X248202737Y-67408569D01*
X248202737Y-67408569D02*
X248012261Y-67408569D01*
X248012261Y-67408569D02*
X247917023Y-67456188D01*
X247917023Y-67456188D02*
X247869404Y-67503807D01*
X247869404Y-67503807D02*
X247821785Y-67599045D01*
X247821785Y-67599045D02*
X247821785Y-67837140D01*
X247821785Y-67837140D02*
X247869404Y-67932378D01*
X247869404Y-67932378D02*
X247917023Y-67979997D01*
X247917023Y-67979997D02*
X248012261Y-68027616D01*
X248012261Y-68027616D02*
X248202737Y-68027616D01*
X248202737Y-68027616D02*
X248297975Y-67979997D01*
X248297975Y-67979997D02*
X248345594Y-67932378D01*
X248345594Y-67932378D02*
X248393213Y-67837140D01*
X204641963Y-74749819D02*
X204641963Y-73749819D01*
X204641963Y-73749819D02*
X204880058Y-73749819D01*
X204880058Y-73749819D02*
X205022915Y-73797438D01*
X205022915Y-73797438D02*
X205118153Y-73892676D01*
X205118153Y-73892676D02*
X205165772Y-73987914D01*
X205165772Y-73987914D02*
X205213391Y-74178390D01*
X205213391Y-74178390D02*
X205213391Y-74321247D01*
X205213391Y-74321247D02*
X205165772Y-74511723D01*
X205165772Y-74511723D02*
X205118153Y-74606961D01*
X205118153Y-74606961D02*
X205022915Y-74702200D01*
X205022915Y-74702200D02*
X204880058Y-74749819D01*
X204880058Y-74749819D02*
X204641963Y-74749819D01*
X206165772Y-74749819D02*
X205594344Y-74749819D01*
X205880058Y-74749819D02*
X205880058Y-73749819D01*
X205880058Y-73749819D02*
X205784820Y-73892676D01*
X205784820Y-73892676D02*
X205689582Y-73987914D01*
X205689582Y-73987914D02*
X205594344Y-74035533D01*
X207118153Y-74749819D02*
X206546725Y-74749819D01*
X206832439Y-74749819D02*
X206832439Y-73749819D01*
X206832439Y-73749819D02*
X206737201Y-73892676D01*
X206737201Y-73892676D02*
X206641963Y-73987914D01*
X206641963Y-73987914D02*
X206546725Y-74035533D01*
X260680713Y-68408569D02*
X260680713Y-67408569D01*
X260680713Y-67408569D02*
X260918808Y-67408569D01*
X260918808Y-67408569D02*
X261061665Y-67456188D01*
X261061665Y-67456188D02*
X261156903Y-67551426D01*
X261156903Y-67551426D02*
X261204522Y-67646664D01*
X261204522Y-67646664D02*
X261252141Y-67837140D01*
X261252141Y-67837140D02*
X261252141Y-67979997D01*
X261252141Y-67979997D02*
X261204522Y-68170473D01*
X261204522Y-68170473D02*
X261156903Y-68265711D01*
X261156903Y-68265711D02*
X261061665Y-68360950D01*
X261061665Y-68360950D02*
X260918808Y-68408569D01*
X260918808Y-68408569D02*
X260680713Y-68408569D01*
X262204522Y-68408569D02*
X261633094Y-68408569D01*
X261918808Y-68408569D02*
X261918808Y-67408569D01*
X261918808Y-67408569D02*
X261823570Y-67551426D01*
X261823570Y-67551426D02*
X261728332Y-67646664D01*
X261728332Y-67646664D02*
X261633094Y-67694283D01*
X262537856Y-67408569D02*
X263156903Y-67408569D01*
X263156903Y-67408569D02*
X262823570Y-67789521D01*
X262823570Y-67789521D02*
X262966427Y-67789521D01*
X262966427Y-67789521D02*
X263061665Y-67837140D01*
X263061665Y-67837140D02*
X263109284Y-67884759D01*
X263109284Y-67884759D02*
X263156903Y-67979997D01*
X263156903Y-67979997D02*
X263156903Y-68218092D01*
X263156903Y-68218092D02*
X263109284Y-68313330D01*
X263109284Y-68313330D02*
X263061665Y-68360950D01*
X263061665Y-68360950D02*
X262966427Y-68408569D01*
X262966427Y-68408569D02*
X262680713Y-68408569D01*
X262680713Y-68408569D02*
X262585475Y-68360950D01*
X262585475Y-68360950D02*
X262537856Y-68313330D01*
X243853213Y-82696069D02*
X243853213Y-81696069D01*
X243853213Y-81696069D02*
X244091308Y-81696069D01*
X244091308Y-81696069D02*
X244234165Y-81743688D01*
X244234165Y-81743688D02*
X244329403Y-81838926D01*
X244329403Y-81838926D02*
X244377022Y-81934164D01*
X244377022Y-81934164D02*
X244424641Y-82124640D01*
X244424641Y-82124640D02*
X244424641Y-82267497D01*
X244424641Y-82267497D02*
X244377022Y-82457973D01*
X244377022Y-82457973D02*
X244329403Y-82553211D01*
X244329403Y-82553211D02*
X244234165Y-82648450D01*
X244234165Y-82648450D02*
X244091308Y-82696069D01*
X244091308Y-82696069D02*
X243853213Y-82696069D01*
X245377022Y-82696069D02*
X244805594Y-82696069D01*
X245091308Y-82696069D02*
X245091308Y-81696069D01*
X245091308Y-81696069D02*
X244996070Y-81838926D01*
X244996070Y-81838926D02*
X244900832Y-81934164D01*
X244900832Y-81934164D02*
X244805594Y-81981783D01*
X246234165Y-81696069D02*
X246043689Y-81696069D01*
X246043689Y-81696069D02*
X245948451Y-81743688D01*
X245948451Y-81743688D02*
X245900832Y-81791307D01*
X245900832Y-81791307D02*
X245805594Y-81934164D01*
X245805594Y-81934164D02*
X245757975Y-82124640D01*
X245757975Y-82124640D02*
X245757975Y-82505592D01*
X245757975Y-82505592D02*
X245805594Y-82600830D01*
X245805594Y-82600830D02*
X245853213Y-82648450D01*
X245853213Y-82648450D02*
X245948451Y-82696069D01*
X245948451Y-82696069D02*
X246138927Y-82696069D01*
X246138927Y-82696069D02*
X246234165Y-82648450D01*
X246234165Y-82648450D02*
X246281784Y-82600830D01*
X246281784Y-82600830D02*
X246329403Y-82505592D01*
X246329403Y-82505592D02*
X246329403Y-82267497D01*
X246329403Y-82267497D02*
X246281784Y-82172259D01*
X246281784Y-82172259D02*
X246234165Y-82124640D01*
X246234165Y-82124640D02*
X246138927Y-82077021D01*
X246138927Y-82077021D02*
X245948451Y-82077021D01*
X245948451Y-82077021D02*
X245853213Y-82124640D01*
X245853213Y-82124640D02*
X245805594Y-82172259D01*
X245805594Y-82172259D02*
X245757975Y-82267497D01*
X223249509Y-74269759D02*
X223392366Y-74317378D01*
X223392366Y-74317378D02*
X223439985Y-74364997D01*
X223439985Y-74364997D02*
X223487604Y-74460235D01*
X223487604Y-74460235D02*
X223487604Y-74603092D01*
X223487604Y-74603092D02*
X223439985Y-74698330D01*
X223439985Y-74698330D02*
X223392366Y-74745950D01*
X223392366Y-74745950D02*
X223297128Y-74793569D01*
X223297128Y-74793569D02*
X222916176Y-74793569D01*
X222916176Y-74793569D02*
X222916176Y-73793569D01*
X222916176Y-73793569D02*
X223249509Y-73793569D01*
X223249509Y-73793569D02*
X223344747Y-73841188D01*
X223344747Y-73841188D02*
X223392366Y-73888807D01*
X223392366Y-73888807D02*
X223439985Y-73984045D01*
X223439985Y-73984045D02*
X223439985Y-74079283D01*
X223439985Y-74079283D02*
X223392366Y-74174521D01*
X223392366Y-74174521D02*
X223344747Y-74222140D01*
X223344747Y-74222140D02*
X223249509Y-74269759D01*
X223249509Y-74269759D02*
X222916176Y-74269759D01*
X223773319Y-73793569D02*
X224344747Y-73793569D01*
X224059033Y-74793569D02*
X224059033Y-73793569D01*
X225201890Y-74793569D02*
X224630462Y-74793569D01*
X224916176Y-74793569D02*
X224916176Y-73793569D01*
X224916176Y-73793569D02*
X224820938Y-73936426D01*
X224820938Y-73936426D02*
X224725700Y-74031664D01*
X224725700Y-74031664D02*
X224630462Y-74079283D01*
X214643154Y-91418569D02*
X214643154Y-90418569D01*
X214643154Y-90418569D02*
X214881249Y-90418569D01*
X214881249Y-90418569D02*
X215024106Y-90466188D01*
X215024106Y-90466188D02*
X215119344Y-90561426D01*
X215119344Y-90561426D02*
X215166963Y-90656664D01*
X215166963Y-90656664D02*
X215214582Y-90847140D01*
X215214582Y-90847140D02*
X215214582Y-90989997D01*
X215214582Y-90989997D02*
X215166963Y-91180473D01*
X215166963Y-91180473D02*
X215119344Y-91275711D01*
X215119344Y-91275711D02*
X215024106Y-91370950D01*
X215024106Y-91370950D02*
X214881249Y-91418569D01*
X214881249Y-91418569D02*
X214643154Y-91418569D01*
X215547916Y-90418569D02*
X216214582Y-90418569D01*
X216214582Y-90418569D02*
X215786011Y-91418569D01*
X221191666Y-94264700D02*
X221334523Y-94312319D01*
X221334523Y-94312319D02*
X221572618Y-94312319D01*
X221572618Y-94312319D02*
X221667856Y-94264700D01*
X221667856Y-94264700D02*
X221715475Y-94217080D01*
X221715475Y-94217080D02*
X221763094Y-94121842D01*
X221763094Y-94121842D02*
X221763094Y-94026604D01*
X221763094Y-94026604D02*
X221715475Y-93931366D01*
X221715475Y-93931366D02*
X221667856Y-93883747D01*
X221667856Y-93883747D02*
X221572618Y-93836128D01*
X221572618Y-93836128D02*
X221382142Y-93788509D01*
X221382142Y-93788509D02*
X221286904Y-93740890D01*
X221286904Y-93740890D02*
X221239285Y-93693271D01*
X221239285Y-93693271D02*
X221191666Y-93598033D01*
X221191666Y-93598033D02*
X221191666Y-93502795D01*
X221191666Y-93502795D02*
X221239285Y-93407557D01*
X221239285Y-93407557D02*
X221286904Y-93359938D01*
X221286904Y-93359938D02*
X221382142Y-93312319D01*
X221382142Y-93312319D02*
X221620237Y-93312319D01*
X221620237Y-93312319D02*
X221763094Y-93359938D01*
X222096428Y-93312319D02*
X222334523Y-94312319D01*
X222334523Y-94312319D02*
X222524999Y-93598033D01*
X222524999Y-93598033D02*
X222715475Y-94312319D01*
X222715475Y-94312319D02*
X222953571Y-93312319D01*
X223858332Y-94312319D02*
X223286904Y-94312319D01*
X223572618Y-94312319D02*
X223572618Y-93312319D01*
X223572618Y-93312319D02*
X223477380Y-93455176D01*
X223477380Y-93455176D02*
X223382142Y-93550414D01*
X223382142Y-93550414D02*
X223286904Y-93598033D01*
X215754404Y-68408569D02*
X215754404Y-67408569D01*
X215754404Y-67408569D02*
X215992499Y-67408569D01*
X215992499Y-67408569D02*
X216135356Y-67456188D01*
X216135356Y-67456188D02*
X216230594Y-67551426D01*
X216230594Y-67551426D02*
X216278213Y-67646664D01*
X216278213Y-67646664D02*
X216325832Y-67837140D01*
X216325832Y-67837140D02*
X216325832Y-67979997D01*
X216325832Y-67979997D02*
X216278213Y-68170473D01*
X216278213Y-68170473D02*
X216230594Y-68265711D01*
X216230594Y-68265711D02*
X216135356Y-68360950D01*
X216135356Y-68360950D02*
X215992499Y-68408569D01*
X215992499Y-68408569D02*
X215754404Y-68408569D01*
X217182975Y-67741902D02*
X217182975Y-68408569D01*
X216944880Y-67360950D02*
X216706785Y-68075235D01*
X216706785Y-68075235D02*
X217325832Y-68075235D01*
X230041904Y-46977319D02*
X230041904Y-45977319D01*
X230041904Y-45977319D02*
X230279999Y-45977319D01*
X230279999Y-45977319D02*
X230422856Y-46024938D01*
X230422856Y-46024938D02*
X230518094Y-46120176D01*
X230518094Y-46120176D02*
X230565713Y-46215414D01*
X230565713Y-46215414D02*
X230613332Y-46405890D01*
X230613332Y-46405890D02*
X230613332Y-46548747D01*
X230613332Y-46548747D02*
X230565713Y-46739223D01*
X230565713Y-46739223D02*
X230518094Y-46834461D01*
X230518094Y-46834461D02*
X230422856Y-46929700D01*
X230422856Y-46929700D02*
X230279999Y-46977319D01*
X230279999Y-46977319D02*
X230041904Y-46977319D01*
X231565713Y-46977319D02*
X230994285Y-46977319D01*
X231279999Y-46977319D02*
X231279999Y-45977319D01*
X231279999Y-45977319D02*
X231184761Y-46120176D01*
X231184761Y-46120176D02*
X231089523Y-46215414D01*
X231089523Y-46215414D02*
X230994285Y-46263033D01*
X234804404Y-58883569D02*
X234804404Y-57883569D01*
X234804404Y-57883569D02*
X235042499Y-57883569D01*
X235042499Y-57883569D02*
X235185356Y-57931188D01*
X235185356Y-57931188D02*
X235280594Y-58026426D01*
X235280594Y-58026426D02*
X235328213Y-58121664D01*
X235328213Y-58121664D02*
X235375832Y-58312140D01*
X235375832Y-58312140D02*
X235375832Y-58454997D01*
X235375832Y-58454997D02*
X235328213Y-58645473D01*
X235328213Y-58645473D02*
X235280594Y-58740711D01*
X235280594Y-58740711D02*
X235185356Y-58835950D01*
X235185356Y-58835950D02*
X235042499Y-58883569D01*
X235042499Y-58883569D02*
X234804404Y-58883569D01*
X236280594Y-57883569D02*
X235804404Y-57883569D01*
X235804404Y-57883569D02*
X235756785Y-58359759D01*
X235756785Y-58359759D02*
X235804404Y-58312140D01*
X235804404Y-58312140D02*
X235899642Y-58264521D01*
X235899642Y-58264521D02*
X236137737Y-58264521D01*
X236137737Y-58264521D02*
X236232975Y-58312140D01*
X236232975Y-58312140D02*
X236280594Y-58359759D01*
X236280594Y-58359759D02*
X236328213Y-58454997D01*
X236328213Y-58454997D02*
X236328213Y-58693092D01*
X236328213Y-58693092D02*
X236280594Y-58788330D01*
X236280594Y-58788330D02*
X236232975Y-58835950D01*
X236232975Y-58835950D02*
X236137737Y-58883569D01*
X236137737Y-58883569D02*
X235899642Y-58883569D01*
X235899642Y-58883569D02*
X235804404Y-58835950D01*
X235804404Y-58835950D02*
X235756785Y-58788330D01*
X223608332Y-78048330D02*
X223560713Y-78095950D01*
X223560713Y-78095950D02*
X223417856Y-78143569D01*
X223417856Y-78143569D02*
X223322618Y-78143569D01*
X223322618Y-78143569D02*
X223179761Y-78095950D01*
X223179761Y-78095950D02*
X223084523Y-78000711D01*
X223084523Y-78000711D02*
X223036904Y-77905473D01*
X223036904Y-77905473D02*
X222989285Y-77714997D01*
X222989285Y-77714997D02*
X222989285Y-77572140D01*
X222989285Y-77572140D02*
X223036904Y-77381664D01*
X223036904Y-77381664D02*
X223084523Y-77286426D01*
X223084523Y-77286426D02*
X223179761Y-77191188D01*
X223179761Y-77191188D02*
X223322618Y-77143569D01*
X223322618Y-77143569D02*
X223417856Y-77143569D01*
X223417856Y-77143569D02*
X223560713Y-77191188D01*
X223560713Y-77191188D02*
X223608332Y-77238807D01*
X224560713Y-78143569D02*
X223989285Y-78143569D01*
X224274999Y-78143569D02*
X224274999Y-77143569D01*
X224274999Y-77143569D02*
X224179761Y-77286426D01*
X224179761Y-77286426D02*
X224084523Y-77381664D01*
X224084523Y-77381664D02*
X223989285Y-77429283D01*
X247980654Y-81893569D02*
X247980654Y-80893569D01*
X247980654Y-80893569D02*
X248218749Y-80893569D01*
X248218749Y-80893569D02*
X248361606Y-80941188D01*
X248361606Y-80941188D02*
X248456844Y-81036426D01*
X248456844Y-81036426D02*
X248504463Y-81131664D01*
X248504463Y-81131664D02*
X248552082Y-81322140D01*
X248552082Y-81322140D02*
X248552082Y-81464997D01*
X248552082Y-81464997D02*
X248504463Y-81655473D01*
X248504463Y-81655473D02*
X248456844Y-81750711D01*
X248456844Y-81750711D02*
X248361606Y-81845950D01*
X248361606Y-81845950D02*
X248218749Y-81893569D01*
X248218749Y-81893569D02*
X247980654Y-81893569D01*
X248933035Y-80988807D02*
X248980654Y-80941188D01*
X248980654Y-80941188D02*
X249075892Y-80893569D01*
X249075892Y-80893569D02*
X249313987Y-80893569D01*
X249313987Y-80893569D02*
X249409225Y-80941188D01*
X249409225Y-80941188D02*
X249456844Y-80988807D01*
X249456844Y-80988807D02*
X249504463Y-81084045D01*
X249504463Y-81084045D02*
X249504463Y-81179283D01*
X249504463Y-81179283D02*
X249456844Y-81322140D01*
X249456844Y-81322140D02*
X248885416Y-81893569D01*
X248885416Y-81893569D02*
X249504463Y-81893569D01*
X246869404Y-92221069D02*
X246869404Y-91221069D01*
X246869404Y-91221069D02*
X247107499Y-91221069D01*
X247107499Y-91221069D02*
X247250356Y-91268688D01*
X247250356Y-91268688D02*
X247345594Y-91363926D01*
X247345594Y-91363926D02*
X247393213Y-91459164D01*
X247393213Y-91459164D02*
X247440832Y-91649640D01*
X247440832Y-91649640D02*
X247440832Y-91792497D01*
X247440832Y-91792497D02*
X247393213Y-91982973D01*
X247393213Y-91982973D02*
X247345594Y-92078211D01*
X247345594Y-92078211D02*
X247250356Y-92173450D01*
X247250356Y-92173450D02*
X247107499Y-92221069D01*
X247107499Y-92221069D02*
X246869404Y-92221069D01*
X248297975Y-91221069D02*
X248107499Y-91221069D01*
X248107499Y-91221069D02*
X248012261Y-91268688D01*
X248012261Y-91268688D02*
X247964642Y-91316307D01*
X247964642Y-91316307D02*
X247869404Y-91459164D01*
X247869404Y-91459164D02*
X247821785Y-91649640D01*
X247821785Y-91649640D02*
X247821785Y-92030592D01*
X247821785Y-92030592D02*
X247869404Y-92125830D01*
X247869404Y-92125830D02*
X247917023Y-92173450D01*
X247917023Y-92173450D02*
X248012261Y-92221069D01*
X248012261Y-92221069D02*
X248202737Y-92221069D01*
X248202737Y-92221069D02*
X248297975Y-92173450D01*
X248297975Y-92173450D02*
X248345594Y-92125830D01*
X248345594Y-92125830D02*
X248393213Y-92030592D01*
X248393213Y-92030592D02*
X248393213Y-91792497D01*
X248393213Y-91792497D02*
X248345594Y-91697259D01*
X248345594Y-91697259D02*
X248297975Y-91649640D01*
X248297975Y-91649640D02*
X248202737Y-91602021D01*
X248202737Y-91602021D02*
X248012261Y-91602021D01*
X248012261Y-91602021D02*
X247917023Y-91649640D01*
X247917023Y-91649640D02*
X247869404Y-91697259D01*
X247869404Y-91697259D02*
X247821785Y-91792497D01*
X248774463Y-104127319D02*
X248774463Y-103127319D01*
X248774463Y-103127319D02*
X249012558Y-103127319D01*
X249012558Y-103127319D02*
X249155415Y-103174938D01*
X249155415Y-103174938D02*
X249250653Y-103270176D01*
X249250653Y-103270176D02*
X249298272Y-103365414D01*
X249298272Y-103365414D02*
X249345891Y-103555890D01*
X249345891Y-103555890D02*
X249345891Y-103698747D01*
X249345891Y-103698747D02*
X249298272Y-103889223D01*
X249298272Y-103889223D02*
X249250653Y-103984461D01*
X249250653Y-103984461D02*
X249155415Y-104079700D01*
X249155415Y-104079700D02*
X249012558Y-104127319D01*
X249012558Y-104127319D02*
X248774463Y-104127319D01*
X250298272Y-104127319D02*
X249726844Y-104127319D01*
X250012558Y-104127319D02*
X250012558Y-103127319D01*
X250012558Y-103127319D02*
X249917320Y-103270176D01*
X249917320Y-103270176D02*
X249822082Y-103365414D01*
X249822082Y-103365414D02*
X249726844Y-103413033D01*
X250917320Y-103127319D02*
X251012558Y-103127319D01*
X251012558Y-103127319D02*
X251107796Y-103174938D01*
X251107796Y-103174938D02*
X251155415Y-103222557D01*
X251155415Y-103222557D02*
X251203034Y-103317795D01*
X251203034Y-103317795D02*
X251250653Y-103508271D01*
X251250653Y-103508271D02*
X251250653Y-103746366D01*
X251250653Y-103746366D02*
X251203034Y-103936842D01*
X251203034Y-103936842D02*
X251155415Y-104032080D01*
X251155415Y-104032080D02*
X251107796Y-104079700D01*
X251107796Y-104079700D02*
X251012558Y-104127319D01*
X251012558Y-104127319D02*
X250917320Y-104127319D01*
X250917320Y-104127319D02*
X250822082Y-104079700D01*
X250822082Y-104079700D02*
X250774463Y-104032080D01*
X250774463Y-104032080D02*
X250726844Y-103936842D01*
X250726844Y-103936842D02*
X250679225Y-103746366D01*
X250679225Y-103746366D02*
X250679225Y-103508271D01*
X250679225Y-103508271D02*
X250726844Y-103317795D01*
X250726844Y-103317795D02*
X250774463Y-103222557D01*
X250774463Y-103222557D02*
X250822082Y-103174938D01*
X250822082Y-103174938D02*
X250917320Y-103127319D01*
X215278213Y-82696069D02*
X215278213Y-81696069D01*
X215278213Y-81696069D02*
X215516308Y-81696069D01*
X215516308Y-81696069D02*
X215659165Y-81743688D01*
X215659165Y-81743688D02*
X215754403Y-81838926D01*
X215754403Y-81838926D02*
X215802022Y-81934164D01*
X215802022Y-81934164D02*
X215849641Y-82124640D01*
X215849641Y-82124640D02*
X215849641Y-82267497D01*
X215849641Y-82267497D02*
X215802022Y-82457973D01*
X215802022Y-82457973D02*
X215754403Y-82553211D01*
X215754403Y-82553211D02*
X215659165Y-82648450D01*
X215659165Y-82648450D02*
X215516308Y-82696069D01*
X215516308Y-82696069D02*
X215278213Y-82696069D01*
X216802022Y-82696069D02*
X216230594Y-82696069D01*
X216516308Y-82696069D02*
X216516308Y-81696069D01*
X216516308Y-81696069D02*
X216421070Y-81838926D01*
X216421070Y-81838926D02*
X216325832Y-81934164D01*
X216325832Y-81934164D02*
X216230594Y-81981783D01*
X217182975Y-81791307D02*
X217230594Y-81743688D01*
X217230594Y-81743688D02*
X217325832Y-81696069D01*
X217325832Y-81696069D02*
X217563927Y-81696069D01*
X217563927Y-81696069D02*
X217659165Y-81743688D01*
X217659165Y-81743688D02*
X217706784Y-81791307D01*
X217706784Y-81791307D02*
X217754403Y-81886545D01*
X217754403Y-81886545D02*
X217754403Y-81981783D01*
X217754403Y-81981783D02*
X217706784Y-82124640D01*
X217706784Y-82124640D02*
X217135356Y-82696069D01*
X217135356Y-82696069D02*
X217754403Y-82696069D01*
X229724463Y-92221069D02*
X229724463Y-91221069D01*
X229724463Y-91221069D02*
X229962558Y-91221069D01*
X229962558Y-91221069D02*
X230105415Y-91268688D01*
X230105415Y-91268688D02*
X230200653Y-91363926D01*
X230200653Y-91363926D02*
X230248272Y-91459164D01*
X230248272Y-91459164D02*
X230295891Y-91649640D01*
X230295891Y-91649640D02*
X230295891Y-91792497D01*
X230295891Y-91792497D02*
X230248272Y-91982973D01*
X230248272Y-91982973D02*
X230200653Y-92078211D01*
X230200653Y-92078211D02*
X230105415Y-92173450D01*
X230105415Y-92173450D02*
X229962558Y-92221069D01*
X229962558Y-92221069D02*
X229724463Y-92221069D01*
X231248272Y-92221069D02*
X230676844Y-92221069D01*
X230962558Y-92221069D02*
X230962558Y-91221069D01*
X230962558Y-91221069D02*
X230867320Y-91363926D01*
X230867320Y-91363926D02*
X230772082Y-91459164D01*
X230772082Y-91459164D02*
X230676844Y-91506783D01*
X232105415Y-91554402D02*
X232105415Y-92221069D01*
X231867320Y-91173450D02*
X231629225Y-91887735D01*
X231629225Y-91887735D02*
X232248272Y-91887735D01*
X198609463Y-68408569D02*
X198609463Y-67408569D01*
X198609463Y-67408569D02*
X198847558Y-67408569D01*
X198847558Y-67408569D02*
X198990415Y-67456188D01*
X198990415Y-67456188D02*
X199085653Y-67551426D01*
X199085653Y-67551426D02*
X199133272Y-67646664D01*
X199133272Y-67646664D02*
X199180891Y-67837140D01*
X199180891Y-67837140D02*
X199180891Y-67979997D01*
X199180891Y-67979997D02*
X199133272Y-68170473D01*
X199133272Y-68170473D02*
X199085653Y-68265711D01*
X199085653Y-68265711D02*
X198990415Y-68360950D01*
X198990415Y-68360950D02*
X198847558Y-68408569D01*
X198847558Y-68408569D02*
X198609463Y-68408569D01*
X200133272Y-68408569D02*
X199561844Y-68408569D01*
X199847558Y-68408569D02*
X199847558Y-67408569D01*
X199847558Y-67408569D02*
X199752320Y-67551426D01*
X199752320Y-67551426D02*
X199657082Y-67646664D01*
X199657082Y-67646664D02*
X199561844Y-67694283D01*
X201038034Y-67408569D02*
X200561844Y-67408569D01*
X200561844Y-67408569D02*
X200514225Y-67884759D01*
X200514225Y-67884759D02*
X200561844Y-67837140D01*
X200561844Y-67837140D02*
X200657082Y-67789521D01*
X200657082Y-67789521D02*
X200895177Y-67789521D01*
X200895177Y-67789521D02*
X200990415Y-67837140D01*
X200990415Y-67837140D02*
X201038034Y-67884759D01*
X201038034Y-67884759D02*
X201085653Y-67979997D01*
X201085653Y-67979997D02*
X201085653Y-68218092D01*
X201085653Y-68218092D02*
X201038034Y-68313330D01*
X201038034Y-68313330D02*
X200990415Y-68360950D01*
X200990415Y-68360950D02*
X200895177Y-68408569D01*
X200895177Y-68408569D02*
X200657082Y-68408569D01*
X200657082Y-68408569D02*
X200561844Y-68360950D01*
X200561844Y-68360950D02*
X200514225Y-68313330D01*
X231883332Y-72379819D02*
X231549999Y-71903628D01*
X231311904Y-72379819D02*
X231311904Y-71379819D01*
X231311904Y-71379819D02*
X231692856Y-71379819D01*
X231692856Y-71379819D02*
X231788094Y-71427438D01*
X231788094Y-71427438D02*
X231835713Y-71475057D01*
X231835713Y-71475057D02*
X231883332Y-71570295D01*
X231883332Y-71570295D02*
X231883332Y-71713152D01*
X231883332Y-71713152D02*
X231835713Y-71808390D01*
X231835713Y-71808390D02*
X231788094Y-71856009D01*
X231788094Y-71856009D02*
X231692856Y-71903628D01*
X231692856Y-71903628D02*
X231311904Y-71903628D01*
X232835713Y-72379819D02*
X232264285Y-72379819D01*
X232549999Y-72379819D02*
X232549999Y-71379819D01*
X232549999Y-71379819D02*
X232454761Y-71522676D01*
X232454761Y-71522676D02*
X232359523Y-71617914D01*
X232359523Y-71617914D02*
X232264285Y-71665533D01*
X231883332Y-76429819D02*
X231549999Y-75953628D01*
X231311904Y-76429819D02*
X231311904Y-75429819D01*
X231311904Y-75429819D02*
X231692856Y-75429819D01*
X231692856Y-75429819D02*
X231788094Y-75477438D01*
X231788094Y-75477438D02*
X231835713Y-75525057D01*
X231835713Y-75525057D02*
X231883332Y-75620295D01*
X231883332Y-75620295D02*
X231883332Y-75763152D01*
X231883332Y-75763152D02*
X231835713Y-75858390D01*
X231835713Y-75858390D02*
X231788094Y-75906009D01*
X231788094Y-75906009D02*
X231692856Y-75953628D01*
X231692856Y-75953628D02*
X231311904Y-75953628D01*
X232264285Y-75525057D02*
X232311904Y-75477438D01*
X232311904Y-75477438D02*
X232407142Y-75429819D01*
X232407142Y-75429819D02*
X232645237Y-75429819D01*
X232645237Y-75429819D02*
X232740475Y-75477438D01*
X232740475Y-75477438D02*
X232788094Y-75525057D01*
X232788094Y-75525057D02*
X232835713Y-75620295D01*
X232835713Y-75620295D02*
X232835713Y-75715533D01*
X232835713Y-75715533D02*
X232788094Y-75858390D01*
X232788094Y-75858390D02*
X232216666Y-76429819D01*
X232216666Y-76429819D02*
X232835713Y-76429819D01*
X235272082Y-90176069D02*
X234938749Y-89699878D01*
X234700654Y-90176069D02*
X234700654Y-89176069D01*
X234700654Y-89176069D02*
X235081606Y-89176069D01*
X235081606Y-89176069D02*
X235176844Y-89223688D01*
X235176844Y-89223688D02*
X235224463Y-89271307D01*
X235224463Y-89271307D02*
X235272082Y-89366545D01*
X235272082Y-89366545D02*
X235272082Y-89509402D01*
X235272082Y-89509402D02*
X235224463Y-89604640D01*
X235224463Y-89604640D02*
X235176844Y-89652259D01*
X235176844Y-89652259D02*
X235081606Y-89699878D01*
X235081606Y-89699878D02*
X234700654Y-89699878D01*
X235605416Y-89176069D02*
X236224463Y-89176069D01*
X236224463Y-89176069D02*
X235891130Y-89557021D01*
X235891130Y-89557021D02*
X236033987Y-89557021D01*
X236033987Y-89557021D02*
X236129225Y-89604640D01*
X236129225Y-89604640D02*
X236176844Y-89652259D01*
X236176844Y-89652259D02*
X236224463Y-89747497D01*
X236224463Y-89747497D02*
X236224463Y-89985592D01*
X236224463Y-89985592D02*
X236176844Y-90080830D01*
X236176844Y-90080830D02*
X236129225Y-90128450D01*
X236129225Y-90128450D02*
X236033987Y-90176069D01*
X236033987Y-90176069D02*
X235748273Y-90176069D01*
X235748273Y-90176069D02*
X235653035Y-90128450D01*
X235653035Y-90128450D02*
X235605416Y-90080830D01*
X240813094Y-75112319D02*
X240813094Y-75921842D01*
X240813094Y-75921842D02*
X240860713Y-76017080D01*
X240860713Y-76017080D02*
X240908332Y-76064700D01*
X240908332Y-76064700D02*
X241003570Y-76112319D01*
X241003570Y-76112319D02*
X241194046Y-76112319D01*
X241194046Y-76112319D02*
X241289284Y-76064700D01*
X241289284Y-76064700D02*
X241336903Y-76017080D01*
X241336903Y-76017080D02*
X241384522Y-75921842D01*
X241384522Y-75921842D02*
X241384522Y-75112319D01*
X242384522Y-76112319D02*
X241813094Y-76112319D01*
X242098808Y-76112319D02*
X242098808Y-75112319D01*
X242098808Y-75112319D02*
X242003570Y-75255176D01*
X242003570Y-75255176D02*
X241908332Y-75350414D01*
X241908332Y-75350414D02*
X241813094Y-75398033D01*
X225438154Y-58883569D02*
X225438154Y-57883569D01*
X225438154Y-57883569D02*
X225676249Y-57883569D01*
X225676249Y-57883569D02*
X225819106Y-57931188D01*
X225819106Y-57931188D02*
X225914344Y-58026426D01*
X225914344Y-58026426D02*
X225961963Y-58121664D01*
X225961963Y-58121664D02*
X226009582Y-58312140D01*
X226009582Y-58312140D02*
X226009582Y-58454997D01*
X226009582Y-58454997D02*
X225961963Y-58645473D01*
X225961963Y-58645473D02*
X225914344Y-58740711D01*
X225914344Y-58740711D02*
X225819106Y-58835950D01*
X225819106Y-58835950D02*
X225676249Y-58883569D01*
X225676249Y-58883569D02*
X225438154Y-58883569D01*
X226581011Y-58312140D02*
X226485773Y-58264521D01*
X226485773Y-58264521D02*
X226438154Y-58216902D01*
X226438154Y-58216902D02*
X226390535Y-58121664D01*
X226390535Y-58121664D02*
X226390535Y-58074045D01*
X226390535Y-58074045D02*
X226438154Y-57978807D01*
X226438154Y-57978807D02*
X226485773Y-57931188D01*
X226485773Y-57931188D02*
X226581011Y-57883569D01*
X226581011Y-57883569D02*
X226771487Y-57883569D01*
X226771487Y-57883569D02*
X226866725Y-57931188D01*
X226866725Y-57931188D02*
X226914344Y-57978807D01*
X226914344Y-57978807D02*
X226961963Y-58074045D01*
X226961963Y-58074045D02*
X226961963Y-58121664D01*
X226961963Y-58121664D02*
X226914344Y-58216902D01*
X226914344Y-58216902D02*
X226866725Y-58264521D01*
X226866725Y-58264521D02*
X226771487Y-58312140D01*
X226771487Y-58312140D02*
X226581011Y-58312140D01*
X226581011Y-58312140D02*
X226485773Y-58359759D01*
X226485773Y-58359759D02*
X226438154Y-58407378D01*
X226438154Y-58407378D02*
X226390535Y-58502616D01*
X226390535Y-58502616D02*
X226390535Y-58693092D01*
X226390535Y-58693092D02*
X226438154Y-58788330D01*
X226438154Y-58788330D02*
X226485773Y-58835950D01*
X226485773Y-58835950D02*
X226581011Y-58883569D01*
X226581011Y-58883569D02*
X226771487Y-58883569D01*
X226771487Y-58883569D02*
X226866725Y-58835950D01*
X226866725Y-58835950D02*
X226914344Y-58788330D01*
X226914344Y-58788330D02*
X226961963Y-58693092D01*
X226961963Y-58693092D02*
X226961963Y-58502616D01*
X226961963Y-58502616D02*
X226914344Y-58407378D01*
X226914344Y-58407378D02*
X226866725Y-58359759D01*
X226866725Y-58359759D02*
X226771487Y-58312140D01*
D11*
%TO.C,D3*%
X209328749Y-106087500D02*
X209328749Y-109177500D01*
X209328749Y-106087670D02*
G75*
G02*
X214878749Y-107632500I2560000J-1544830D01*
G01*
X214878749Y-107632500D02*
G75*
G02*
X209328749Y-109177330I-2990000J0D01*
G01*
X214388749Y-107632500D02*
G75*
G02*
X209388749Y-107632500I-2500000J0D01*
G01*
X209388749Y-107632500D02*
G75*
G02*
X214388749Y-107632500I2500000J0D01*
G01*
%TO.C,D9*%
X245047499Y-70368750D02*
X245047499Y-73458750D01*
X245047499Y-70368920D02*
G75*
G02*
X250597499Y-71913750I2560000J-1544830D01*
G01*
X250597499Y-71913750D02*
G75*
G02*
X245047499Y-73458580I-2990000J0D01*
G01*
X250107499Y-71913750D02*
G75*
G02*
X245107499Y-71913750I-2500000J0D01*
G01*
X245107499Y-71913750D02*
G75*
G02*
X250107499Y-71913750I2500000J0D01*
G01*
%TO.C,D11*%
X204407499Y-77512500D02*
X204407499Y-80602500D01*
X204407499Y-77512670D02*
G75*
G02*
X209957499Y-79057500I2560000J-1544830D01*
G01*
X209957499Y-79057500D02*
G75*
G02*
X204407499Y-80602330I-2990000J0D01*
G01*
X209467499Y-79057500D02*
G75*
G02*
X204467499Y-79057500I-2500000J0D01*
G01*
X204467499Y-79057500D02*
G75*
G02*
X209467499Y-79057500I2500000J0D01*
G01*
%TO.C,D13*%
X259334999Y-70368750D02*
X259334999Y-73458750D01*
X259334999Y-70368920D02*
G75*
G02*
X264884999Y-71913750I2560000J-1544830D01*
G01*
X264884999Y-71913750D02*
G75*
G02*
X259334999Y-73458580I-2990000J0D01*
G01*
X264394999Y-71913750D02*
G75*
G02*
X259394999Y-71913750I-2500000J0D01*
G01*
X259394999Y-71913750D02*
G75*
G02*
X264394999Y-71913750I2500000J0D01*
G01*
%TO.C,D16*%
X242507499Y-84656250D02*
X242507499Y-87746250D01*
X242507499Y-84656420D02*
G75*
G02*
X248057499Y-86201250I2560000J-1544830D01*
G01*
X248057499Y-86201250D02*
G75*
G02*
X242507499Y-87746080I-2990000J0D01*
G01*
X247567499Y-86201250D02*
G75*
G02*
X242567499Y-86201250I-2500000J0D01*
G01*
X242567499Y-86201250D02*
G75*
G02*
X247567499Y-86201250I2500000J0D01*
G01*
%TO.C,D7*%
X211709999Y-94181250D02*
X211709999Y-97271250D01*
X211709999Y-94181420D02*
G75*
G02*
X217259999Y-95726250I2560000J-1544830D01*
G01*
X217259999Y-95726250D02*
G75*
G02*
X211709999Y-97271080I-2990000J0D01*
G01*
X216769999Y-95726250D02*
G75*
G02*
X211769999Y-95726250I-2500000J0D01*
G01*
X211769999Y-95726250D02*
G75*
G02*
X216769999Y-95726250I2500000J0D01*
G01*
%TO.C,SW1*%
X219024999Y-97357500D02*
X219024999Y-98857500D01*
X220274999Y-101357500D02*
X224774999Y-101357500D01*
X224774999Y-94857500D02*
X220274999Y-94857500D01*
X226024999Y-98857500D02*
X226024999Y-97357500D01*
%TO.C,D4*%
X218992499Y-71913750D02*
G75*
G02*
X213992499Y-71913750I-2500000J0D01*
G01*
X213992499Y-71913750D02*
G75*
G02*
X218992499Y-71913750I2500000J0D01*
G01*
X219482499Y-71913750D02*
G75*
G02*
X213932499Y-73458580I-2990000J0D01*
G01*
X213932499Y-70368920D02*
G75*
G02*
X219482499Y-71913750I2560000J-1544830D01*
G01*
X213932499Y-70368750D02*
X213932499Y-73458750D01*
%TO.C,D1*%
X233279999Y-50482500D02*
G75*
G02*
X228279999Y-50482500I-2500000J0D01*
G01*
X228279999Y-50482500D02*
G75*
G02*
X233279999Y-50482500I2500000J0D01*
G01*
X233769999Y-50482500D02*
G75*
G02*
X228219999Y-52027330I-2990000J0D01*
G01*
X228219999Y-48937670D02*
G75*
G02*
X233769999Y-50482500I2560000J-1544830D01*
G01*
X228219999Y-48937500D02*
X228219999Y-52027500D01*
%TO.C,D5*%
X232982499Y-60843750D02*
X232982499Y-63933750D01*
X232982499Y-60843920D02*
G75*
G02*
X238532499Y-62388750I2560000J-1544830D01*
G01*
X238532499Y-62388750D02*
G75*
G02*
X232982499Y-63933580I-2990000J0D01*
G01*
X238042499Y-62388750D02*
G75*
G02*
X233042499Y-62388750I-2500000J0D01*
G01*
X233042499Y-62388750D02*
G75*
G02*
X238042499Y-62388750I2500000J0D01*
G01*
%TO.C,C1*%
X220970224Y-79963750D02*
X221470224Y-79963750D01*
X221220224Y-79713750D02*
X221220224Y-80213750D01*
X223774999Y-78858750D02*
X223774999Y-84018750D01*
X223814999Y-78858750D02*
X223814999Y-84018750D01*
X223854999Y-78859750D02*
X223854999Y-84017750D01*
X223894999Y-78861750D02*
X223894999Y-84015750D01*
X223934999Y-78863750D02*
X223934999Y-84013750D01*
X223974999Y-78866750D02*
X223974999Y-84010750D01*
X224014999Y-78869750D02*
X224014999Y-80398750D01*
X224014999Y-82478750D02*
X224014999Y-84007750D01*
X224054999Y-78873750D02*
X224054999Y-80398750D01*
X224054999Y-82478750D02*
X224054999Y-84003750D01*
X224094999Y-78878750D02*
X224094999Y-80398750D01*
X224094999Y-82478750D02*
X224094999Y-83998750D01*
X224134999Y-78883750D02*
X224134999Y-80398750D01*
X224134999Y-82478750D02*
X224134999Y-83993750D01*
X224174999Y-78889750D02*
X224174999Y-80398750D01*
X224174999Y-82478750D02*
X224174999Y-83987750D01*
X224214999Y-78895750D02*
X224214999Y-80398750D01*
X224214999Y-82478750D02*
X224214999Y-83981750D01*
X224254999Y-78902750D02*
X224254999Y-80398750D01*
X224254999Y-82478750D02*
X224254999Y-83974750D01*
X224294999Y-78910750D02*
X224294999Y-80398750D01*
X224294999Y-82478750D02*
X224294999Y-83966750D01*
X224334999Y-78919750D02*
X224334999Y-80398750D01*
X224334999Y-82478750D02*
X224334999Y-83957750D01*
X224374999Y-78928750D02*
X224374999Y-80398750D01*
X224374999Y-82478750D02*
X224374999Y-83948750D01*
X224414999Y-78937750D02*
X224414999Y-80398750D01*
X224414999Y-82478750D02*
X224414999Y-83939750D01*
X224454999Y-78948750D02*
X224454999Y-80398750D01*
X224454999Y-82478750D02*
X224454999Y-83928750D01*
X224494999Y-78959750D02*
X224494999Y-80398750D01*
X224494999Y-82478750D02*
X224494999Y-83917750D01*
X224534999Y-78971750D02*
X224534999Y-80398750D01*
X224534999Y-82478750D02*
X224534999Y-83905750D01*
X224574999Y-78983750D02*
X224574999Y-80398750D01*
X224574999Y-82478750D02*
X224574999Y-83893750D01*
X224614999Y-78996750D02*
X224614999Y-80398750D01*
X224614999Y-82478750D02*
X224614999Y-83880750D01*
X224654999Y-79010750D02*
X224654999Y-80398750D01*
X224654999Y-82478750D02*
X224654999Y-83866750D01*
X224694999Y-79025750D02*
X224694999Y-80398750D01*
X224694999Y-82478750D02*
X224694999Y-83851750D01*
X224734999Y-79040750D02*
X224734999Y-80398750D01*
X224734999Y-82478750D02*
X224734999Y-83836750D01*
X224774999Y-79056750D02*
X224774999Y-80398750D01*
X224774999Y-82478750D02*
X224774999Y-83820750D01*
X224814999Y-79073750D02*
X224814999Y-80398750D01*
X224814999Y-82478750D02*
X224814999Y-83803750D01*
X224854999Y-79091750D02*
X224854999Y-80398750D01*
X224854999Y-82478750D02*
X224854999Y-83785750D01*
X224894999Y-79109750D02*
X224894999Y-80398750D01*
X224894999Y-82478750D02*
X224894999Y-83767750D01*
X224934999Y-79129750D02*
X224934999Y-80398750D01*
X224934999Y-82478750D02*
X224934999Y-83747750D01*
X224974999Y-79149750D02*
X224974999Y-80398750D01*
X224974999Y-82478750D02*
X224974999Y-83727750D01*
X225014999Y-79170750D02*
X225014999Y-80398750D01*
X225014999Y-82478750D02*
X225014999Y-83706750D01*
X225054999Y-79192750D02*
X225054999Y-80398750D01*
X225054999Y-82478750D02*
X225054999Y-83684750D01*
X225094999Y-79215750D02*
X225094999Y-80398750D01*
X225094999Y-82478750D02*
X225094999Y-83661750D01*
X225134999Y-79239750D02*
X225134999Y-80398750D01*
X225134999Y-82478750D02*
X225134999Y-83637750D01*
X225174999Y-79263750D02*
X225174999Y-80398750D01*
X225174999Y-82478750D02*
X225174999Y-83613750D01*
X225214999Y-79289750D02*
X225214999Y-80398750D01*
X225214999Y-82478750D02*
X225214999Y-83587750D01*
X225254999Y-79316750D02*
X225254999Y-80398750D01*
X225254999Y-82478750D02*
X225254999Y-83560750D01*
X225294999Y-79344750D02*
X225294999Y-80398750D01*
X225294999Y-82478750D02*
X225294999Y-83532750D01*
X225334999Y-79373750D02*
X225334999Y-80398750D01*
X225334999Y-82478750D02*
X225334999Y-83503750D01*
X225374999Y-79403750D02*
X225374999Y-80398750D01*
X225374999Y-82478750D02*
X225374999Y-83473750D01*
X225414999Y-79435750D02*
X225414999Y-80398750D01*
X225414999Y-82478750D02*
X225414999Y-83441750D01*
X225454999Y-79468750D02*
X225454999Y-80398750D01*
X225454999Y-82478750D02*
X225454999Y-83408750D01*
X225494999Y-79502750D02*
X225494999Y-80398750D01*
X225494999Y-82478750D02*
X225494999Y-83374750D01*
X225534999Y-79537750D02*
X225534999Y-80398750D01*
X225534999Y-82478750D02*
X225534999Y-83339750D01*
X225574999Y-79574750D02*
X225574999Y-80398750D01*
X225574999Y-82478750D02*
X225574999Y-83302750D01*
X225614999Y-79613750D02*
X225614999Y-80398750D01*
X225614999Y-82478750D02*
X225614999Y-83263750D01*
X225654999Y-79653750D02*
X225654999Y-80398750D01*
X225654999Y-82478750D02*
X225654999Y-83223750D01*
X225694999Y-79695750D02*
X225694999Y-80398750D01*
X225694999Y-82478750D02*
X225694999Y-83181750D01*
X225734999Y-79739750D02*
X225734999Y-80398750D01*
X225734999Y-82478750D02*
X225734999Y-83137750D01*
X225774999Y-79786750D02*
X225774999Y-80398750D01*
X225774999Y-82478750D02*
X225774999Y-83090750D01*
X225814999Y-79834750D02*
X225814999Y-80398750D01*
X225814999Y-82478750D02*
X225814999Y-83042750D01*
X225854999Y-79885750D02*
X225854999Y-80398750D01*
X225854999Y-82478750D02*
X225854999Y-82991750D01*
X225894999Y-79939750D02*
X225894999Y-80398750D01*
X225894999Y-82478750D02*
X225894999Y-82937750D01*
X225934999Y-79995750D02*
X225934999Y-80398750D01*
X225934999Y-82478750D02*
X225934999Y-82881750D01*
X225974999Y-80055750D02*
X225974999Y-80398750D01*
X225974999Y-82478750D02*
X225974999Y-82821750D01*
X226014999Y-80119750D02*
X226014999Y-80398750D01*
X226014999Y-82478750D02*
X226014999Y-82757750D01*
X226054999Y-80187750D02*
X226054999Y-80398750D01*
X226054999Y-82478750D02*
X226054999Y-82689750D01*
X226094999Y-80261750D02*
X226094999Y-82615750D01*
X226134999Y-80340750D02*
X226134999Y-82536750D01*
X226174999Y-80427750D02*
X226174999Y-82449750D01*
X226214999Y-80524750D02*
X226214999Y-82352750D01*
X226254999Y-80633750D02*
X226254999Y-82243750D01*
X226294999Y-80761750D02*
X226294999Y-82115750D01*
X226334999Y-80921750D02*
X226334999Y-81955750D01*
X226374999Y-81155750D02*
X226374999Y-81721750D01*
X226394999Y-81438750D02*
G75*
G02*
X221154999Y-81438750I-2620000J0D01*
G01*
X221154999Y-81438750D02*
G75*
G02*
X226394999Y-81438750I2620000J0D01*
G01*
%TO.C,D2*%
X257092499Y-79057500D02*
G75*
G02*
X252092499Y-79057500I-2500000J0D01*
G01*
X252092499Y-79057500D02*
G75*
G02*
X257092499Y-79057500I2500000J0D01*
G01*
X257582499Y-79057500D02*
G75*
G02*
X252032499Y-80602330I-2990000J0D01*
G01*
X252032499Y-77512670D02*
G75*
G02*
X257582499Y-79057500I2560000J-1544830D01*
G01*
X252032499Y-77512500D02*
X252032499Y-80602500D01*
%TO.C,D6*%
X245047499Y-94181250D02*
X245047499Y-97271250D01*
X245047499Y-94181420D02*
G75*
G02*
X250597499Y-95726250I2560000J-1544830D01*
G01*
X250597499Y-95726250D02*
G75*
G02*
X245047499Y-97271080I-2990000J0D01*
G01*
X250107499Y-95726250D02*
G75*
G02*
X245107499Y-95726250I-2500000J0D01*
G01*
X245107499Y-95726250D02*
G75*
G02*
X250107499Y-95726250I2500000J0D01*
G01*
%TO.C,D10*%
X247428749Y-106087500D02*
X247428749Y-109177500D01*
X247428749Y-106087670D02*
G75*
G02*
X252978749Y-107632500I2560000J-1544830D01*
G01*
X252978749Y-107632500D02*
G75*
G02*
X247428749Y-109177330I-2990000J0D01*
G01*
X252488749Y-107632500D02*
G75*
G02*
X247488749Y-107632500I-2500000J0D01*
G01*
X247488749Y-107632500D02*
G75*
G02*
X252488749Y-107632500I2500000J0D01*
G01*
%TO.C,D12*%
X213932499Y-84656250D02*
X213932499Y-87746250D01*
X213932499Y-84656420D02*
G75*
G02*
X219482499Y-86201250I2560000J-1544830D01*
G01*
X219482499Y-86201250D02*
G75*
G02*
X213932499Y-87746080I-2990000J0D01*
G01*
X218992499Y-86201250D02*
G75*
G02*
X213992499Y-86201250I-2500000J0D01*
G01*
X213992499Y-86201250D02*
G75*
G02*
X218992499Y-86201250I2500000J0D01*
G01*
%TO.C,D14*%
X228378749Y-94181250D02*
X228378749Y-97271250D01*
X228378749Y-94181420D02*
G75*
G02*
X233928749Y-95726250I2560000J-1544830D01*
G01*
X233928749Y-95726250D02*
G75*
G02*
X228378749Y-97271080I-2990000J0D01*
G01*
X233438749Y-95726250D02*
G75*
G02*
X228438749Y-95726250I-2500000J0D01*
G01*
X228438749Y-95726250D02*
G75*
G02*
X233438749Y-95726250I2500000J0D01*
G01*
%TO.C,D15*%
X197263749Y-70368750D02*
X197263749Y-73458750D01*
X197263749Y-70368920D02*
G75*
G02*
X202813749Y-71913750I2560000J-1544830D01*
G01*
X202813749Y-71913750D02*
G75*
G02*
X197263749Y-73458580I-2990000J0D01*
G01*
X202323749Y-71913750D02*
G75*
G02*
X197323749Y-71913750I-2500000J0D01*
G01*
X197323749Y-71913750D02*
G75*
G02*
X202323749Y-71913750I2500000J0D01*
G01*
%TO.C,R1*%
X228779999Y-72925000D02*
X235319999Y-72925000D01*
X228779999Y-73255000D02*
X228779999Y-72925000D01*
X228779999Y-75335000D02*
X228779999Y-75665000D01*
X228779999Y-75665000D02*
X235319999Y-75665000D01*
X235319999Y-72925000D02*
X235319999Y-73255000D01*
X235319999Y-75665000D02*
X235319999Y-75335000D01*
%TO.C,R2*%
X228779999Y-76975000D02*
X235319999Y-76975000D01*
X228779999Y-77305000D02*
X228779999Y-76975000D01*
X228779999Y-79385000D02*
X228779999Y-79715000D01*
X228779999Y-79715000D02*
X235319999Y-79715000D01*
X235319999Y-76975000D02*
X235319999Y-77305000D01*
X235319999Y-79715000D02*
X235319999Y-79385000D01*
%TO.C,R3*%
X236909999Y-91235000D02*
X227159999Y-91235000D01*
X236909999Y-81485000D02*
X236909999Y-91235000D01*
X227159999Y-91235000D02*
X227159999Y-81485000D01*
X227159999Y-81485000D02*
X236909999Y-81485000D01*
%TO.C,U1*%
X239514999Y-76497500D02*
X243634999Y-76497500D01*
X239514999Y-76592500D02*
X239514999Y-76497500D01*
X239514999Y-81617500D02*
X239514999Y-81522500D01*
X243634999Y-76497500D02*
X243634999Y-76592500D01*
X243634999Y-81522500D02*
X243634999Y-81617500D01*
X243634999Y-81617500D02*
X239514999Y-81617500D01*
X238974999Y-76587500D02*
X238734999Y-76257500D01*
X239214999Y-76257500D01*
X238974999Y-76587500D01*
G36*
X238974999Y-76587500D02*
G01*
X238734999Y-76257500D01*
X239214999Y-76257500D01*
X238974999Y-76587500D01*
G37*
%TO.C,D8*%
X228676249Y-62388750D02*
G75*
G02*
X223676249Y-62388750I-2500000J0D01*
G01*
X223676249Y-62388750D02*
G75*
G02*
X228676249Y-62388750I2500000J0D01*
G01*
X229166249Y-62388750D02*
G75*
G02*
X223616249Y-63933580I-2990000J0D01*
G01*
X223616249Y-60843920D02*
G75*
G02*
X229166249Y-62388750I2560000J-1544830D01*
G01*
X223616249Y-60843750D02*
X223616249Y-63933750D01*
%TD*%
M02*
