%TF.GenerationSoftware,KiCad,Pcbnew,9.0.6*%
%TF.CreationDate,2026-04-07T01:39:47+02:00*%
%TF.ProjectId,PCB_Board,5043425f-426f-4617-9264-2e6b69636164,rev?*%
%TF.SameCoordinates,Original*%
%TF.FileFunction,Soldermask,Bot*%
%TF.FilePolarity,Negative*%
%FSLAX46Y46*%
G04 Gerber Fmt 4.6, Leading zero omitted, Abs format (unit mm)*
G04 Created by KiCad (PCBNEW 9.0.6) date 2026-04-07 01:39:47*
%MOMM*%
%LPD*%
G01*
G04 APERTURE LIST*
G04 Aperture macros list*
%AMRoundRect*
0 Rectangle with rounded corners*
0 $1 Rounding radius*
0 $2 $3 $4 $5 $6 $7 $8 $9 X,Y pos of 4 corners*
0 Add a 4 corners polygon primitive as box body*
4,1,4,$2,$3,$4,$5,$6,$7,$8,$9,$2,$3,0*
0 Add four circle primitives for the rounded corners*
1,1,$1+$1,$2,$3*
1,1,$1+$1,$4,$5*
1,1,$1+$1,$6,$7*
1,1,$1+$1,$8,$9*
0 Add four rect primitives between the rounded corners*
20,1,$1+$1,$2,$3,$4,$5,0*
20,1,$1+$1,$4,$5,$6,$7,0*
20,1,$1+$1,$6,$7,$8,$9,0*
20,1,$1+$1,$8,$9,$2,$3,0*%
G04 Aperture macros list end*
%ADD10R,1.800000X1.800000*%
%ADD11C,1.800000*%
%ADD12RoundRect,0.250000X-0.550000X-0.550000X0.550000X-0.550000X0.550000X0.550000X-0.550000X0.550000X0*%
%ADD13C,1.600000*%
%ADD14C,2.000000*%
%ADD15C,1.440000*%
G04 APERTURE END LIST*
D10*
%TO.C,D3*%
X210618749Y-107632500D03*
D11*
X213158749Y-107632500D03*
%TD*%
D10*
%TO.C,D9*%
X246337499Y-71913750D03*
D11*
X248877499Y-71913750D03*
%TD*%
D10*
%TO.C,D11*%
X205697499Y-79057500D03*
D11*
X208237499Y-79057500D03*
%TD*%
D10*
%TO.C,D13*%
X260624999Y-71913750D03*
D11*
X263164999Y-71913750D03*
%TD*%
D10*
%TO.C,D16*%
X243797499Y-86201250D03*
D11*
X246337499Y-86201250D03*
%TD*%
D12*
%TO.C,BT1*%
X222235224Y-76338750D03*
D13*
X225835224Y-76338750D03*
%TD*%
D10*
%TO.C,D7*%
X212999999Y-95726250D03*
D11*
X215539999Y-95726250D03*
%TD*%
D14*
%TO.C,SW1*%
X219274999Y-95857500D03*
X225774999Y-95857500D03*
X219274999Y-100357500D03*
X225774999Y-100357500D03*
%TD*%
D11*
%TO.C,D4*%
X217762499Y-71913750D03*
D10*
X215222499Y-71913750D03*
%TD*%
D11*
%TO.C,D1*%
X232049999Y-50482500D03*
D10*
X229509999Y-50482500D03*
%TD*%
%TO.C,D5*%
X234272499Y-62388750D03*
D11*
X236812499Y-62388750D03*
%TD*%
D12*
%TO.C,C1*%
X222524999Y-81438750D03*
D13*
X225024999Y-81438750D03*
%TD*%
D11*
%TO.C,D2*%
X255862499Y-79057500D03*
D10*
X253322499Y-79057500D03*
%TD*%
%TO.C,D6*%
X246337499Y-95726250D03*
D11*
X248877499Y-95726250D03*
%TD*%
D10*
%TO.C,D10*%
X248718749Y-107632500D03*
D11*
X251258749Y-107632500D03*
%TD*%
D10*
%TO.C,D12*%
X215222499Y-86201250D03*
D11*
X217762499Y-86201250D03*
%TD*%
D10*
%TO.C,D14*%
X229668749Y-95726250D03*
D11*
X232208749Y-95726250D03*
%TD*%
D10*
%TO.C,D15*%
X198553749Y-71913750D03*
D11*
X201093749Y-71913750D03*
%TD*%
D13*
%TO.C,R1*%
X228239999Y-74295000D03*
X235859999Y-74295000D03*
%TD*%
%TO.C,R2*%
X228239999Y-78345000D03*
X235859999Y-78345000D03*
%TD*%
D15*
%TO.C,R3*%
X232049999Y-83820000D03*
X234589999Y-86360000D03*
X232049999Y-88900000D03*
%TD*%
D11*
%TO.C,D8*%
X227446249Y-62388750D03*
D10*
X224906249Y-62388750D03*
%TD*%
M02*
