M48
; DRILL file {KiCad 9.0.6} date 2026-04-07T01:39:40+0200
; FORMAT={-:-/ absolute / metric / decimal}
; #@! TF.CreationDate,2026-04-07T01:39:40+02:00
; #@! TF.GenerationSoftware,Kicad,Pcbnew,9.0.6
; #@! TF.FileFunction,Plated,1,2,PTH
FMAT,2
METRIC
; #@! TA.AperFunction,Plated,PTH,ViaDrill
T1C0.300
; #@! TA.AperFunction,Plated,PTH,ComponentDrill
T2C0.600
; #@! TA.AperFunction,Plated,PTH,ComponentDrill
T3C0.800
; #@! TA.AperFunction,Plated,PTH,ComponentDrill
T4C0.900
; #@! TA.AperFunction,Plated,PTH,ComponentDrill
T5C1.100
%
G90
G05
T1
X212.576Y-81.863
X236.812Y-69.532
X239.194Y-78.892
X241.575Y-69.532
X241.575Y-79.057
X246.337Y-81.439
X248.719Y-76.676
X253.136Y-77.021
T2
X222.235Y-76.339
X225.835Y-76.339
T3
X222.525Y-81.439
X225.025Y-81.439
X228.24Y-74.295
X228.24Y-78.345
X232.05Y-83.82
X232.05Y-88.9
X234.59Y-86.36
X235.86Y-74.295
X235.86Y-78.345
T4
X198.554Y-71.914
X201.094Y-71.914
X205.697Y-79.057
X208.237Y-79.057
X210.619Y-107.632
X213.0Y-95.726
X213.159Y-107.632
X215.222Y-71.914
X215.222Y-86.201
X215.54Y-95.726
X217.762Y-71.914
X217.762Y-86.201
X224.906Y-62.389
X227.446Y-62.389
X229.51Y-50.482
X229.669Y-95.726
X232.05Y-50.482
X232.209Y-95.726
X234.272Y-62.389
X236.812Y-62.389
X243.797Y-86.201
X246.337Y-71.914
X246.337Y-86.201
X246.337Y-95.726
X248.719Y-107.632
X248.877Y-71.914
X248.877Y-95.726
X251.259Y-107.632
X253.322Y-79.057
X255.862Y-79.057
X260.625Y-71.914
X263.165Y-71.914
T5
X219.275Y-95.858
X219.275Y-100.358
X225.775Y-95.858
X225.775Y-100.358
M30
